<?xml version="1.0" standalone="no"?>
<!DOCTYPE svg PUBLIC "-//W3C//DTD SVG 20010904//EN"
 "http://www.w3.org/TR/2001/REC-SVG-20010904/DTD/svg10.dtd">
<svg version="1.0" xmlns="http://www.w3.org/2000/svg"
 width="700.000000pt" height="700.000000pt" viewBox="0 0 700.000000 700.000000"
 preserveAspectRatio="xMidYMid meet">
<metadata>
Created by potrace 1.11, written by Peter Selinger 2001-2013
</metadata>
<g transform="translate(0.000000,700.000000) scale(0.100000,-0.100000)"
fill="#000000" stroke="none">
<path d="M0 3500 l0 -3500 1593 0 1593 0 0 725 0 725 -818 0 -818 0 0 2775 0
2775 -775 0 -775 0 0 -3500z"/>
<path d="M1620 6276 l0 -726 883 -1 c485 -1 893 -3 907 -4 94 -8 184 -17 203
-21 228 -43 420 -99 552 -159 186 -86 240 -115 372 -202 148 -99 342 -272 444
-400 96 -117 130 -164 167 -225 213 -348 304 -680 297 -1073 -4 -198 -5 -209
-41 -375 -53 -242 -162 -498 -293 -685 -285 -406 -688 -701 -1161 -849 -63
-20 -124 -38 -135 -40 -11 -3 -40 -9 -65 -14 -25 -6 -63 -13 -85 -16 -22 -4
-53 -9 -70 -11 -57 -10 -110 -15 -220 -21 -60 -4 -112 -8 -114 -10 -3 -3 -5
-1354 -2 -1427 1 -17 12 -18 154 -12 83 3 168 7 187 10 19 2 62 7 95 10 853
87 1687 480 2283 1074 208 207 357 393 515 645 123 194 228 411 311 639 65
180 133 442 150 574 2 15 7 44 10 63 37 223 42 636 11 880 -12 100 -17 136
-21 154 -3 12 -11 53 -19 91 -7 39 -16 80 -19 93 -8 28 -12 46 -25 105 -20 86
-98 311 -151 438 -232 546 -567 982 -1075 1398 -304 248 -761 492 -1175 626
-112 36 -345 98 -405 108 -16 3 -50 10 -75 15 -25 6 -65 13 -90 16 -25 3 -54
8 -65 10 -39 7 -101 16 -155 21 -30 3 -77 8 -105 12 -27 3 -483 8 -1012 10
l-963 4 0 -725z"/>
<path d="M3011 4209 c-203 -52 -379 -194 -475 -383 -38 -74 -76 -198 -76 -248
l0 -27 729 0 729 1 -5 41 c-8 67 -58 208 -98 276 -96 163 -287 304 -472 347
-68 16 -258 12 -332 -7z"/>
<path d="M2460 3423 c0 -46 31 -155 66 -229 80 -172 221 -303 404 -377 81 -32
103 -37 215 -43 230 -14 419 64 581 239 92 99 169 263 188 399 l5 37 -730 0
-729 0 0 -26z"/>
</g>
</svg>
