<?xml version="1.0" encoding="UTF-8"?>
<svg width="100px" height="204px" viewBox="0 0 100 204" version="1.1" xmlns="http://www.w3.org/2000/svg" xmlns:xlink="http://www.w3.org/1999/xlink">
    <!-- Generator: Sketch 53.2 (72643) - https://sketchapp.com -->
    <title>iphone</title>
    <desc>Created with Sketch.</desc>
    <defs>
        <path d="M100,14.7788199 L100,188.890905 C100,197.060387 93.3994334,203.669725 85.2407932,203.669725 L14.7592068,203.669725 C6.60056657,203.669725 0,197.060387 0,188.890905 L0,14.7788199 C0,6.60933787 6.60056657,2.01554378e-15 14.7592068,0 L85.2407932,0 C93.3994334,0 100,6.60933787 100,14.7788199 Z" id="path-1"></path>
    </defs>
    <g id="Home" stroke="none" stroke-width="1" fill="none" fill-rule="evenodd">
        <g id="Desktop-Copy-10" transform="translate(-814.000000, -399.000000)">
            <g id="iphone" transform="translate(814.000000, 399.000000)">
                <g id="XMLID_136_" stroke-width="1" fill-rule="evenodd">
                    <mask id="mask-2" fill="white">
                        <use xlink:href="#path-1"></use>
                    </mask>
                    <use id="Mask" fill="#000000" fill-rule="nonzero" xlink:href="#path-1"></use>
                    <path d="M86.0056657,5.38958882 L77.9320113,5.38958882 C76.203966,5.38958882 75.5807365,5.3328563 75.4674221,7.51705809 C75.3541076,9.78635864 73.796034,11.0628402 71.6997167,11.7152641 C70.9915014,11.9421942 70.1983003,11.9138279 69.4334278,11.9138279 L67.9036827,11.9138279 L33.6827195,11.9138279 L32.1529745,11.9138279 C31.388102,11.9138279 30.5949008,11.9705604 29.8866856,11.7436304 C27.7903683,11.0912065 26.203966,9.75799238 26.1189802,7.48869183 C26.0056657,5.30449005 25.3824363,5.38958882 23.6543909,5.38958882 L15.4957507,5.38958882 C10.5382436,5.38958882 6.23229462,9.36086479 6.23229462,14.2965935 L6.23229462,188.266847 C6.23229462,193.230942 10.5382436,197.145486 15.4674221,197.145486 L86.0056657,197.145486 C90.9631728,197.145486 94.6175637,193.230942 94.6175637,188.266847 L94.6175637,14.2965935 C94.6175637,9.36086479 90.9631728,5.38958882 86.0056657,5.38958882 Z" fill="#FFFFFF" fill-rule="nonzero" mask="url(#mask-2)"></path>
                </g>
                <path d="M60.4268437,108.667978 C60.0589793,109.522711 59.623548,110.309489 59.1190482,111.03284 C58.431367,112.018955 57.8683092,112.701533 57.4343794,113.080576 C56.7617131,113.702749 56.0409991,114.021386 55.2692346,114.039508 C54.7151858,114.039508 54.0470239,113.880944 53.2692534,113.559287 C52.4889305,113.239139 51.7718201,113.080576 51.1161206,113.080576 C50.4284393,113.080576 49.6909087,113.239139 48.9020273,113.559287 C48.1119446,113.880944 47.4754641,114.048568 46.9888321,114.06518 C46.2487489,114.096892 45.5110682,113.769194 44.7747388,113.080576 C44.3047733,112.66831 43.7169409,111.96157 43.0127434,110.960354 C42.2571949,109.891183 41.6360296,108.651367 41.1493975,107.237886 C40.6282313,105.711145 40.3669725,104.232729 40.3669725,102.801428 C40.3669725,101.161881 40.7192214,99.7477962 41.4247703,98.5627979 C41.9792696,97.6109635 42.7169504,96.8601272 43.6402149,96.3089301 C44.5634795,95.7577329 45.5610677,95.4768489 46.6353819,95.4588784 C47.2232142,95.4588784 47.9940779,95.641755 48.9520268,96.0011658 C49.9072731,96.3617846 50.5206307,96.5446613 50.789547,96.5446613 C50.9905962,96.5446613 51.6719712,96.330827 52.8270654,95.9045175 C53.9193975,95.5091657 54.8413107,95.3454677 55.5965589,95.4099502 C57.6430861,95.5760644 59.1806092,96.3874568 60.2031221,97.8492618 C58.372809,98.9646432 57.4674121,100.526872 57.48543,102.530964 C57.5019463,104.091985 58.0650041,105.390998 59.1716003,106.422416 C59.6730971,106.901127 60.2331519,107.271109 60.8562691,107.533871 C60.7211352,107.928015 60.5784939,108.305547 60.4268437,108.667978 Z M55.7331942,90.0918793 C55.7331942,91.3154011 55.2887539,92.4577987 54.4028764,93.5151911 C53.3338174,94.7722227 52.0407365,95.4985948 50.6384974,95.383976 C50.6206297,95.2371914 50.6102695,95.0827052 50.6102695,94.9203663 C50.6102695,93.7457879 51.1186731,92.4887563 52.0215174,91.4609624 C52.4722639,90.9405719 53.0455318,90.5078746 53.7407205,90.1627044 C54.4344076,89.8226837 55.0905576,89.6346424 55.7076689,89.6024465 C55.7256868,89.7660086 55.7331942,89.9295858 55.7331942,90.0918642 L55.7331942,90.0918793 Z" id="Combined-Shape" fill="#000000" fill-rule="nonzero"></path>
                <path d="M60.9348442,8.08438323 C60.2464439,8.08438323 59.6883853,7.52558297 59.6883853,6.83626792 C59.6883853,6.14695287 60.2464439,5.58815262 60.9348442,5.58815262 C61.6232444,5.58815262 62.1813031,6.14695287 62.1813031,6.83626792 C62.1813031,7.52558297 61.6232444,8.08438323 60.9348442,8.08438323 Z M45.2974504,7.65888937 C44.8441926,7.65888937 44.4475921,7.3752268 44.4475921,6.94973295 C44.4475921,6.52423909 44.815864,6.24057653 45.2974504,6.24057653 L56.3456091,6.24057653 C56.8271955,6.24057653 57.1954674,6.52423909 57.1954674,6.94973295 C57.1954674,7.3752268 56.8271955,7.65888937 56.3456091,7.65888937 L45.2974504,7.65888937 Z" id="Combined-Shape" fill="#333333" fill-rule="nonzero"></path>
                <rect id="Rectangle" fill="#FE7F67" fill-rule="evenodd" x="18.3486239" y="166.972477" width="64.2201835" height="18.0428135" rx="3.05810398"></rect>
            </g>
        </g>
    </g>
</svg>