<?xml version="1.0" encoding="UTF-8"?>
<svg width="50px" height="50px" viewBox="0 0 50 50" version="1.1" xmlns="http://www.w3.org/2000/svg" xmlns:xlink="http://www.w3.org/1999/xlink">
    <!-- Generator: Sketch 53.2 (72643) - https://sketchapp.com -->
    <title>email</title>
    <desc>Created with Sketch.</desc>
    <g id="Home" stroke="none" stroke-width="1" fill="none" fill-rule="evenodd">
        <g id="Desktop-Copy-8" transform="translate(-592.000000, -2645.000000)" fill="#000000" fill-rule="nonzero">
            <path d="M617,2695 C603.192881,2695 592,2683.80712 592,2670 C592,2656.19288 603.192881,2645 617,2645 C630.807119,2645 642,2656.19288 642,2670 C642,2683.80712 630.807119,2695 617,2695 Z M617,2673.28125 L631.921875,2660.50781 C631.6875,2660.35156 631.375,2660.23438 631.0625,2660.23438 L602.9375,2660.23438 C602.625,2660.23438 602.3125,2660.35156 602.078125,2660.50781 L617,2673.28125 Z M618.015625,2674.45312 C617.429688,2674.96094 616.570312,2674.96094 615.984375,2674.45312 L601.375,2661.99219 L601.375,2678.20312 C601.375,2679.0625 602.078125,2679.76562 602.9375,2679.76562 L631.0625,2679.76562 C631.921875,2679.76562 632.625,2679.0625 632.625,2678.20312 L632.625,2661.95312 L618.015625,2674.45312 Z" id="email"></path>
        </g>
    </g>
</svg>