<?xml version="1.0" encoding="UTF-8"?>
<svg width="50px" height="50px" viewBox="0 0 50 50" version="1.1" xmlns="http://www.w3.org/2000/svg" xmlns:xlink="http://www.w3.org/1999/xlink">
    <!-- Generator: Sketch 53.2 (72643) - https://sketchapp.com -->
    <title>github</title>
    <desc>Created with Sketch.</desc>
    <g id="Home" stroke="none" stroke-width="1" fill="none" fill-rule="evenodd">
        <g id="Desktop-Copy-8" transform="translate(-452.000000, -2645.000000)" fill="#000000">
            <path d="M477,2645 C463.1875,2645 452,2656.47047 452,2670.63235 C452,2681.97466 459.15625,2691.55475 469.09375,2694.95103 C470.34375,2695.17532 470.8125,2694.40635 470.8125,2693.7335 C470.8125,2693.12473 470.78125,2691.10618 470.78125,2688.95947 C464.5,2690.14497 462.875,2687.38949 462.375,2685.94767 C462.09375,2685.21074 460.875,2682.93587 459.8125,2682.3271 C458.9375,2681.8465 457.6875,2680.661 459.78125,2680.62896 C461.75,2680.59692 463.15625,2682.48731 463.625,2683.25628 C465.875,2687.13317 469.46875,2686.04379 470.90625,2685.37095 C471.125,2683.70484 471.78125,2682.58343 472.5,2681.94262 C466.9375,2681.30181 461.125,2679.09102 461.125,2669.28665 C461.125,2666.49913 462.09375,2664.19222 463.6875,2662.39795 C463.4375,2661.75715 462.5625,2659.12983 463.9375,2655.60538 C463.9375,2655.60538 466.03125,2654.93253 470.8125,2658.2327 C472.8125,2657.65597 474.9375,2657.36761 477.0625,2657.36761 C479.1875,2657.36761 481.3125,2657.65597 483.3125,2658.2327 C488.09375,2654.90049 490.1875,2655.60538 490.1875,2655.60538 C491.5625,2659.12983 490.6875,2661.75715 490.4375,2662.39795 C492.03125,2664.19222 493,2666.46709 493,2669.28665 C493,2679.12306 487.15625,2681.30181 481.59375,2681.94262 C482.5,2682.74363 483.28125,2684.28157 483.28125,2686.6846 C483.28125,2690.11293 483.25,2692.86841 483.25,2693.7335 C483.25,2694.40635 483.71875,2695.20736 484.96875,2694.95103 C494.84375,2691.55475 502,2681.94262 502,2670.63235 C502,2656.47047 490.8125,2645 477,2645 Z" id="github"></path>
        </g>
    </g>
</svg>