<?xml version="1.0" encoding="UTF-8"?>
<svg width="200px" height="59px" viewBox="0 0 200 59" version="1.1" xmlns="http://www.w3.org/2000/svg" xmlns:xlink="http://www.w3.org/1999/xlink">
    <!-- Generator: Sketch 53.2 (72643) - https://sketchapp.com -->
    <title>google-play</title>
    <desc>Created with Sketch.</desc>
    <defs>
        <path d="M192.592593,59 L7.40740741,59 C3.25925926,59 0,55.755 0,51.625 L0,7.375 C0,3.245 3.25925926,0 7.40740741,0 L192.592593,0 C196.740741,0 200,3.245 200,7.375 L200,51.625 C200,55.755 196.740741,59 192.592593,59 Z" id="path-1"></path>
        <linearGradient x1="61.1210967%" y1="4.84%" x2="25.9049899%" y2="71.968%" id="linearGradient-3">
            <stop stop-color="#00A0FF" offset="0%"></stop>
            <stop stop-color="#00A1FF" offset="0.7%"></stop>
            <stop stop-color="#00BEFF" offset="26%"></stop>
            <stop stop-color="#00D2FF" offset="51.2%"></stop>
            <stop stop-color="#00DFFF" offset="76%"></stop>
            <stop stop-color="#00E3FF" offset="100%"></stop>
        </linearGradient>
        <linearGradient x1="107.724138%" y1="49.4235294%" x2="-130.669951%" y2="49.4235294%" id="linearGradient-4">
            <stop stop-color="#FFE000" offset="0%"></stop>
            <stop stop-color="#FFBD00" offset="40.9%"></stop>
            <stop stop-color="#FFA500" offset="77.5%"></stop>
            <stop stop-color="#FF9C00" offset="100%"></stop>
        </linearGradient>
        <linearGradient x1="86.3892216%" y1="30.9966699%" x2="-49.8862275%" y2="135.251597%" id="linearGradient-5">
            <stop stop-color="#FF3A44" offset="0%"></stop>
            <stop stop-color="#C31162" offset="100%"></stop>
        </linearGradient>
        <linearGradient x1="-18.5808383%" y1="-11.1447514%" x2="42.2754491%" y2="35.1961073%" id="linearGradient-6">
            <stop stop-color="#32A071" offset="0%"></stop>
            <stop stop-color="#2DA771" offset="6.9%"></stop>
            <stop stop-color="#15CF74" offset="47.6%"></stop>
            <stop stop-color="#06E775" offset="80.1%"></stop>
            <stop stop-color="#00F076" offset="100%"></stop>
        </linearGradient>
    </defs>
    <g id="Home" stroke="none" stroke-width="1" fill="none" fill-rule="evenodd">
        <g id="Desktop-Copy-8" transform="translate(-540.000000, -1372.000000)">
            <g id="google-play" transform="translate(540.000000, 1372.000000)">
                <g id="Shape" stroke-width="1" fill-rule="evenodd">
                    <mask id="mask-2" fill="white">
                        <use xlink:href="#path-1"></use>
                    </mask>
                    <use id="Mask" fill="#000000" fill-rule="nonzero" xlink:href="#path-1"></use>
                    <path d="M192.592593,1.18 C196,1.18 198.814815,3.9825 198.814815,7.375 L198.814815,51.625 C198.814815,55.0175 196,57.82 192.592593,57.82 L7.40740741,57.82 C4,57.82 1.18518519,55.0175 1.18518519,51.625 L1.18518519,7.375 C1.18518519,3.9825 4,1.18 7.40740741,1.18 L192.592593,1.18 L192.592593,1.18 Z M192.592593,0 L7.40740741,0 C3.25925926,0 0,3.3925 0,7.375 L0,51.625 C0,55.755 3.25925926,59 7.40740741,59 L192.592593,59 C196.740741,59 200,55.755 200,51.625 L200,7.375 C200,3.3925 196.740741,0 192.592593,0 Z" fill="#A6A6A6" fill-rule="nonzero" mask="url(#mask-2)"></path>
                </g>
                <path d="M70.2222222,15.045 C70.2222222,16.225 69.9259259,17.2575 69.1851852,17.995 C68.2962963,18.88 67.2592593,19.3225 65.9259259,19.3225 C64.5925926,19.3225 63.5555556,18.88 62.6666667,17.995 C61.7777778,17.11 61.3333333,16.0775 61.3333333,14.75 C61.3333333,13.4225 61.7777778,12.39 62.6666667,11.505 C63.5555556,10.62 64.5925926,10.1775 65.9259259,10.1775 C66.5185185,10.1775 67.1111111,10.325 67.7037037,10.62 C68.2962963,10.915 68.7407407,11.21 69.037037,11.6525 L68.2962963,12.39 C67.7037037,11.6525 66.962963,11.3575 65.9259259,11.3575 C65.037037,11.3575 64.1481481,11.6525 63.5555556,12.39 C62.8148148,12.98 62.5185185,13.865 62.5185185,14.8975 C62.5185185,15.93 62.8148148,16.815 63.5555556,17.405 C64.2962963,17.995 65.037037,18.4375 65.9259259,18.4375 C66.962963,18.4375 67.7037037,18.1425 68.4444444,17.405 C68.8888889,16.9625 69.1851852,16.3725 69.1851852,15.635 L65.9259259,15.635 L65.9259259,14.455 L70.2222222,14.455 L70.2222222,15.045 Z M77.037037,11.3575 L73.037037,11.3575 L73.037037,14.16 L76.7407407,14.16 L76.7407407,15.1925 L73.037037,15.1925 L73.037037,17.995 L77.037037,17.995 L77.037037,19.175 L71.8518519,19.175 L71.8518519,10.325 L77.037037,10.325 L77.037037,11.3575 Z M81.9259259,19.175 L80.7407407,19.175 L80.7407407,11.3575 L78.2222222,11.3575 L78.2222222,10.325 L84.4444444,10.325 L84.4444444,11.3575 L81.9259259,11.3575 L81.9259259,19.175 Z M88.7407407,19.175 L88.7407407,10.325 L89.9259259,10.325 L89.9259259,19.175 L88.7407407,19.175 Z M94.962963,19.175 L93.7777778,19.175 L93.7777778,11.3575 L91.2592593,11.3575 L91.2592593,10.325 L97.3333333,10.325 L97.3333333,11.3575 L94.8148148,11.3575 L94.8148148,19.175 L94.962963,19.175 Z M109.037037,17.995 C108.148148,18.88 107.111111,19.3225 105.777778,19.3225 C104.444444,19.3225 103.407407,18.88 102.518519,17.995 C101.62963,17.11 101.185185,16.0775 101.185185,14.75 C101.185185,13.4225 101.62963,12.39 102.518519,11.505 C103.407407,10.62 104.444444,10.1775 105.777778,10.1775 C107.111111,10.1775 108.148148,10.62 109.037037,11.505 C109.925926,12.39 110.37037,13.4225 110.37037,14.75 C110.37037,16.0775 109.925926,17.11 109.037037,17.995 Z M103.407407,17.2575 C104,17.8475 104.888889,18.29 105.777778,18.29 C106.666667,18.29 107.555556,17.995 108.148148,17.2575 C108.740741,16.6675 109.185185,15.7825 109.185185,14.75 C109.185185,13.7175 108.888889,12.8325 108.148148,12.2425 C107.555556,11.6525 106.666667,11.21 105.777778,11.21 C104.888889,11.21 104,11.505 103.407407,12.2425 C102.814815,12.8325 102.37037,13.7175 102.37037,14.75 C102.37037,15.7825 102.666667,16.6675 103.407407,17.2575 Z M112,19.175 L112,10.325 L113.333333,10.325 L117.62963,17.2575 L117.62963,10.325 L118.814815,10.325 L118.814815,19.175 L117.62963,19.175 L113.037037,11.9475 L113.037037,19.175 L112,19.175 Z" id="Combined-Shape" stroke="#FFFFFF" stroke-width="0.72337963" fill="#FFFFFF" fill-rule="nonzero"></path>
                <path d="M100.888889,32.155 C104.444444,32.155 107.259259,34.6625 107.259259,38.4975 C107.259259,42.185 104.444444,44.84 100.888889,44.84 C97.3333333,44.84 94.5185185,42.0375 94.5185185,38.4975 C94.5185185,34.81 97.3333333,32.155 100.888889,32.155 Z M100.888889,42.185 C102.814815,42.185 104.444444,40.5625 104.444444,38.35 C104.444444,35.99 102.814815,34.515 100.888889,34.515 C98.962963,34.515 97.3333333,36.1375 97.3333333,38.35 C97.3333333,40.5625 98.962963,42.185 100.888889,42.185 Z M87.1111111,32.155 C90.6666667,32.155 93.4814815,34.6625 93.4814815,38.4975 C93.4814815,42.185 90.6666667,44.84 87.1111111,44.84 C83.5555556,44.84 80.7407407,42.0375 80.7407407,38.4975 C80.7407407,34.81 83.5555556,32.155 87.1111111,32.155 Z M87.1111111,42.185 C89.037037,42.185 90.6666667,40.5625 90.6666667,38.35 C90.6666667,35.99 89.037037,34.515 87.1111111,34.515 C85.1851852,34.515 83.5555556,36.1375 83.5555556,38.35 C83.5555556,40.5625 85.1851852,42.185 87.1111111,42.185 Z M70.6666667,34.0725 L79.8518519,34.0725 C80,34.515 80,35.105 80,35.695 C80,37.6125 79.4074074,40.12 77.6296296,41.89 C75.8518519,43.8075 73.7777778,44.6925 70.8148148,44.6925 C65.4814815,44.6925 60.8888889,40.2675 60.8888889,34.9575 C60.8888889,29.6475 65.4814815,25.2225 70.8148148,25.2225 C73.7777778,25.2225 75.8518519,26.4025 77.4814815,27.8775 L75.5555556,29.795 C74.3703704,28.7625 72.7407407,27.8775 70.6666667,27.8775 C66.8148148,27.8775 63.7037037,30.975 63.7037037,34.9575 C63.7037037,38.94 66.6666667,42.0375 70.6666667,42.0375 C73.1851852,42.0375 74.6666667,41.005 75.5555556,40.12 C76.2962963,39.3825 76.8888889,38.2025 77.037037,36.7275 L70.6666667,36.7275 L70.6666667,34.0725 Z M137.925926,36.1375 L138.222222,36.875 L129.777778,40.415 C130.518519,41.7425 131.407407,42.3325 132.888889,42.3325 C134.37037,42.3325 135.259259,41.595 136,40.5625 L138.074074,42.0375 C137.481481,43.07 135.703704,44.84 132.888889,44.84 C129.333333,44.84 126.666667,42.0375 126.666667,38.4975 C126.666667,34.6625 129.333333,32.155 132.592593,32.155 C135.851852,32.155 137.333333,34.6625 137.925926,36.1375 Z M129.333333,38.2025 L134.962963,35.8425 C134.666667,35.105 133.62963,34.515 132.592593,34.515 C131.259259,34.515 129.333333,35.8425 129.333333,38.2025 Z M122.37037,44.25 L122.37037,25.8125 L125.185185,25.8125 L125.185185,44.25 L122.37037,44.25 Z M117.925926,33.4825 L117.925926,32.45 L120.592593,32.45 L120.592593,43.66 C120.592593,48.2325 117.925926,50.15 114.666667,50.15 C111.555556,50.15 109.777778,48.085 109.037037,46.4625 L111.407407,45.43 C111.703704,46.4625 112.888889,47.6425 114.518519,47.6425 C116.592593,47.6425 117.925926,46.315 117.925926,43.955 L117.925926,43.07 L117.777778,43.07 C117.185185,43.8075 116,44.545 114.518519,44.545 C111.259259,44.545 108.444444,41.89 108.444444,38.35 C108.444444,34.81 111.407407,32.0075 114.518519,32.0075 C116,32.0075 117.185185,32.745 117.925926,33.4825 Z M114.666667,42.185 C116.592593,42.185 118.074074,40.5625 118.074074,38.35 C118.074074,36.1375 116.592593,34.515 114.666667,34.515 C112.740741,34.515 111.111111,36.1375 111.111111,38.35 C111.111111,40.5625 112.740741,42.185 114.666667,42.185 Z M150.814815,25.8125 C153.925926,25.8125 156.888889,28.025 156.888889,31.565 C156.888889,35.105 153.925926,37.3175 150.814815,37.3175 L146.962963,37.3175 L146.962963,44.25 L144.148148,44.25 L144.148148,25.8125 L150.814815,25.8125 Z M150.962963,34.6625 C152.888889,34.6625 154.074074,33.04 154.222222,31.4175 C154.222222,30.09 153.037037,28.32 150.962963,28.32 L146.962963,28.32 L146.962963,34.6625 L150.962963,34.6625 Z M168,32.0075 C171.111111,32.0075 173.62963,33.925 173.925926,37.17 L173.925926,44.25 L171.259259,44.25 L171.259259,42.775 L171.111111,42.775 C170.37037,43.66 169.481481,44.545 167.555556,44.545 C165.185185,44.545 162.962963,42.9225 162.962963,40.415 C162.962963,37.76 165.62963,36.285 168.296296,36.285 C169.481481,36.285 170.666667,36.7275 171.111111,37.0225 L171.111111,36.875 C170.962963,35.4 169.62963,34.515 168.148148,34.515 C167.111111,34.515 166.222222,34.81 165.62963,35.8425 L163.111111,34.81 C163.851852,32.8925 165.925926,32.0075 168,32.0075 Z M167.703704,42.185 C169.185185,42.185 170.666667,41.005 170.962963,39.235 C170.222222,38.94 169.62963,38.645 168.444444,38.645 C167.111111,38.645 165.481481,39.0875 165.481481,40.5625 C165.481481,41.7425 166.814815,42.185 167.703704,42.185 Z M183.259259,32.45 L186.222222,32.45 L178.666667,49.855 L175.851852,49.855 L178.666667,43.66 L173.777778,32.45 L176.740741,32.45 L180,40.415 L180.148148,40.415 L183.259259,32.45 Z M158.37037,44.25 L158.37037,25.8125 L161.185185,25.8125 L161.185185,44.25 L158.37037,44.25 Z" id="Combined-Shape" fill="#FFFFFF" fill-rule="nonzero"></path>
                <g id="Group" stroke-width="1" fill-rule="evenodd" transform="translate(14.814815, 10.325000)">
                    <path d="M0.592592593,0.7375 C0.148148148,1.18 0,1.9175 0,2.8025 L0,35.4 C0,36.285 0.296296296,37.0225 0.740740741,37.465 L0.888888889,37.6125 L19.2592593,19.3225 L19.2592593,19.0275 L0.592592593,0.7375 Z" id="Path" fill="url(#linearGradient-3)" fill-rule="nonzero"></path>
                    <path d="M25.1851852,25.5175 L19.1111111,19.47 L19.1111111,19.0275 L25.1851852,12.98 L25.3333333,13.1275 L32.5925926,17.2575 C34.6666667,18.4375 34.6666667,20.355 32.5925926,21.535 L25.1851852,25.5175 L25.1851852,25.5175 Z" id="Path" fill="url(#linearGradient-4)" fill-rule="nonzero"></path>
                    <path d="M25.3333333,25.37 L19.1111111,19.175 L0.592592593,37.6125 C1.33333333,38.35 2.37037037,38.35 3.7037037,37.76 L25.3333333,25.37" id="Path" fill="url(#linearGradient-5)" fill-rule="nonzero"></path>
                    <path d="M25.3333333,12.98 L3.7037037,0.7375 C2.37037037,0 1.33333333,0.1475 0.592592593,0.885 L19.1111111,19.175 L25.3333333,12.98 L25.3333333,12.98 Z" id="Path" fill="url(#linearGradient-6)" fill-rule="nonzero"></path>
                    <path d="M25.1851852,25.2225 L3.7037037,37.3175 C2.51851852,38.055 1.48148148,37.9075 0.740740741,37.3175 L0.592592593,37.465 L0.740740741,37.6125 C1.48148148,38.2025 2.51851852,38.35 3.7037037,37.6125 L25.1851852,25.2225 Z" id="Path" fill="#000000" fill-rule="nonzero" opacity="0.2"></path>
                    <path d="M0.592592593,37.3175 C0.148148148,36.875 0,36.1375 0,35.2525 L0,35.4 C0,36.285 0.296296296,37.0225 0.740740741,37.465 L0.740740741,37.3175 L0.592592593,37.3175 Z M32.5925926,21.0925 L25.1851852,25.2225 L25.3333333,25.37 L32.5925926,21.24 C33.6296296,20.65 34.0740741,19.9125 34.0740741,19.175 C34.0740741,19.9125 33.4814815,20.5025 32.5925926,21.0925 L32.5925926,21.0925 Z" id="Shape" fill="#000000" fill-rule="nonzero" opacity="0.12"></path>
                    <path d="M3.7037037,0.885 L32.5925926,17.2575 C33.4814815,17.8475 34.0740741,18.4375 34.0740741,19.175 C34.0740741,18.4375 33.6296296,17.7 32.5925926,17.11 L3.7037037,0.7375 C1.62962963,-0.4425 0,0.4425 0,2.8025 L0,2.95 C0,0.7375 1.62962963,-0.295 3.7037037,0.885 Z" id="Path" fill="#FFFFFF" fill-rule="nonzero" opacity="0.25"></path>
                </g>
            </g>
        </g>
    </g>
</svg>