<?xml version="1.0" encoding="UTF-8"?>
<svg width="210px" height="62px" viewBox="0 0 210 62" version="1.1" xmlns="http://www.w3.org/2000/svg" xmlns:xlink="http://www.w3.org/1999/xlink">
    <!-- Generator: Sketch 53.2 (72643) - https://sketchapp.com -->
    <title>google-play</title>
    <desc>Created with Sketch.</desc>
    <defs>
        <path d="M202.222222,61.95 L7.77777778,61.95 C3.42222222,61.95 0,58.54275 0,54.20625 L0,7.74375 C0,3.40725 3.42222222,0 7.77777778,0 L202.222222,0 C206.577778,0 210,3.40725 210,7.74375 L210,54.20625 C210,58.54275 206.577778,61.95 202.222222,61.95 Z" id="path-1"></path>
        <linearGradient x1="61.1210967%" y1="4.84%" x2="25.9049899%" y2="71.968%" id="linearGradient-3">
            <stop stop-color="#00A0FF" offset="0%"></stop>
            <stop stop-color="#00A1FF" offset="0.7%"></stop>
            <stop stop-color="#00BEFF" offset="26%"></stop>
            <stop stop-color="#00D2FF" offset="51.2%"></stop>
            <stop stop-color="#00DFFF" offset="76%"></stop>
            <stop stop-color="#00E3FF" offset="100%"></stop>
        </linearGradient>
        <linearGradient x1="107.724138%" y1="49.4235294%" x2="-130.669951%" y2="49.4235294%" id="linearGradient-4">
            <stop stop-color="#FFE000" offset="0%"></stop>
            <stop stop-color="#FFBD00" offset="40.9%"></stop>
            <stop stop-color="#FFA500" offset="77.5%"></stop>
            <stop stop-color="#FF9C00" offset="100%"></stop>
        </linearGradient>
        <linearGradient x1="86.3892216%" y1="30.9966699%" x2="-49.8862275%" y2="135.251597%" id="linearGradient-5">
            <stop stop-color="#FF3A44" offset="0%"></stop>
            <stop stop-color="#C31162" offset="100%"></stop>
        </linearGradient>
        <linearGradient x1="-18.5808383%" y1="-11.1447514%" x2="42.2754491%" y2="35.1961073%" id="linearGradient-6">
            <stop stop-color="#32A071" offset="0%"></stop>
            <stop stop-color="#2DA771" offset="6.9%"></stop>
            <stop stop-color="#15CF74" offset="47.6%"></stop>
            <stop stop-color="#06E775" offset="80.1%"></stop>
            <stop stop-color="#00F076" offset="100%"></stop>
        </linearGradient>
    </defs>
    <g id="Home" stroke="none" stroke-width="1" fill="none" fill-rule="evenodd">
        <g id="Desktop-Copy-11" transform="translate(-535.000000, -1426.000000)">
            <g id="Group-3" transform="translate(144.000000, 999.000000)">
                <g id="google-play" transform="translate(391.000000, 427.000000)">
                    <g id="Shape" stroke-width="1" fill-rule="evenodd">
                        <mask id="mask-2" fill="white">
                            <use xlink:href="#path-1"></use>
                        </mask>
                        <use id="Mask" fill="#000000" fill-rule="nonzero" xlink:href="#path-1"></use>
                        <path d="M202.222222,1.239 C205.8,1.239 208.755556,4.181625 208.755556,7.74375 L208.755556,54.20625 C208.755556,57.768375 205.8,60.711 202.222222,60.711 L7.77777778,60.711 C4.2,60.711 1.24444444,57.768375 1.24444444,54.20625 L1.24444444,7.74375 C1.24444444,4.181625 4.2,1.239 7.77777778,1.239 L202.222222,1.239 L202.222222,1.239 Z M202.222222,0 L7.77777778,0 C3.42222222,0 0,3.562125 0,7.74375 L0,54.20625 C0,58.54275 3.42222222,61.95 7.77777778,61.95 L202.222222,61.95 C206.577778,61.95 210,58.54275 210,54.20625 L210,7.74375 C210,3.562125 206.577778,0 202.222222,0 Z" fill="#A6A6A6" fill-rule="nonzero" mask="url(#mask-2)"></path>
                    </g>
                    <path d="M73.7333333,15.79725 C73.7333333,17.03625 73.4222222,18.120375 72.6444444,18.89475 C71.7111111,19.824 70.6222222,20.288625 69.2222222,20.288625 C67.8222222,20.288625 66.7333333,19.824 65.8,18.89475 C64.8666667,17.9655 64.4,16.881375 64.4,15.4875 C64.4,14.093625 64.8666667,13.0095 65.8,12.08025 C66.7333333,11.151 67.8222222,10.686375 69.2222222,10.686375 C69.8444444,10.686375 70.4666667,10.84125 71.0888889,11.151 C71.7111111,11.46075 72.1777778,11.7705 72.4888889,12.235125 L71.7111111,13.0095 C71.0888889,12.235125 70.3111111,11.925375 69.2222222,11.925375 C68.2888889,11.925375 67.3555556,12.235125 66.7333333,13.0095 C65.9555556,13.629 65.6444444,14.55825 65.6444444,15.642375 C65.6444444,16.7265 65.9555556,17.65575 66.7333333,18.27525 C67.5111111,18.89475 68.2888889,19.359375 69.2222222,19.359375 C70.3111111,19.359375 71.0888889,19.049625 71.8666667,18.27525 C72.3333333,17.810625 72.6444444,17.191125 72.6444444,16.41675 L69.2222222,16.41675 L69.2222222,15.17775 L73.7333333,15.17775 L73.7333333,15.79725 Z M80.8888889,11.925375 L76.6888889,11.925375 L76.6888889,14.868 L80.5777778,14.868 L80.5777778,15.952125 L76.6888889,15.952125 L76.6888889,18.89475 L80.8888889,18.89475 L80.8888889,20.13375 L75.4444444,20.13375 L75.4444444,10.84125 L80.8888889,10.84125 L80.8888889,11.925375 Z M86.0222222,20.13375 L84.7777778,20.13375 L84.7777778,11.925375 L82.1333333,11.925375 L82.1333333,10.84125 L88.6666667,10.84125 L88.6666667,11.925375 L86.0222222,11.925375 L86.0222222,20.13375 Z M93.1777778,20.13375 L93.1777778,10.84125 L94.4222222,10.84125 L94.4222222,20.13375 L93.1777778,20.13375 Z M99.7111111,20.13375 L98.4666667,20.13375 L98.4666667,11.925375 L95.8222222,11.925375 L95.8222222,10.84125 L102.2,10.84125 L102.2,11.925375 L99.5555556,11.925375 L99.5555556,20.13375 L99.7111111,20.13375 Z M114.488889,18.89475 C113.555556,19.824 112.466667,20.288625 111.066667,20.288625 C109.666667,20.288625 108.577778,19.824 107.644444,18.89475 C106.711111,17.9655 106.244444,16.881375 106.244444,15.4875 C106.244444,14.093625 106.711111,13.0095 107.644444,12.08025 C108.577778,11.151 109.666667,10.686375 111.066667,10.686375 C112.466667,10.686375 113.555556,11.151 114.488889,12.08025 C115.422222,13.0095 115.888889,14.093625 115.888889,15.4875 C115.888889,16.881375 115.422222,17.9655 114.488889,18.89475 Z M108.577778,18.120375 C109.2,18.739875 110.133333,19.2045 111.066667,19.2045 C112,19.2045 112.933333,18.89475 113.555556,18.120375 C114.177778,17.500875 114.644444,16.571625 114.644444,15.4875 C114.644444,14.403375 114.333333,13.474125 113.555556,12.854625 C112.933333,12.235125 112,11.7705 111.066667,11.7705 C110.133333,11.7705 109.2,12.08025 108.577778,12.854625 C107.955556,13.474125 107.488889,14.403375 107.488889,15.4875 C107.488889,16.571625 107.8,17.500875 108.577778,18.120375 Z M117.6,20.13375 L117.6,10.84125 L119,10.84125 L123.511111,18.120375 L123.511111,10.84125 L124.755556,10.84125 L124.755556,20.13375 L123.511111,20.13375 L118.688889,12.544875 L118.688889,20.13375 L117.6,20.13375 Z" id="Combined-Shape" stroke="#FFFFFF" stroke-width="0.759548611" fill="#FFFFFF" fill-rule="nonzero"></path>
                    <path d="M105.933333,33.76275 C109.666667,33.76275 112.622222,36.395625 112.622222,40.422375 C112.622222,44.29425 109.666667,47.082 105.933333,47.082 C102.2,47.082 99.2444444,44.139375 99.2444444,40.422375 C99.2444444,36.5505 102.2,33.76275 105.933333,33.76275 Z M105.933333,44.29425 C107.955556,44.29425 109.666667,42.590625 109.666667,40.2675 C109.666667,37.7895 107.955556,36.24075 105.933333,36.24075 C103.911111,36.24075 102.2,37.944375 102.2,40.2675 C102.2,42.590625 103.911111,44.29425 105.933333,44.29425 Z M91.4666667,33.76275 C95.2,33.76275 98.1555556,36.395625 98.1555556,40.422375 C98.1555556,44.29425 95.2,47.082 91.4666667,47.082 C87.7333333,47.082 84.7777778,44.139375 84.7777778,40.422375 C84.7777778,36.5505 87.7333333,33.76275 91.4666667,33.76275 Z M91.4666667,44.29425 C93.4888889,44.29425 95.2,42.590625 95.2,40.2675 C95.2,37.7895 93.4888889,36.24075 91.4666667,36.24075 C89.4444444,36.24075 87.7333333,37.944375 87.7333333,40.2675 C87.7333333,42.590625 89.4444444,44.29425 91.4666667,44.29425 Z M74.2,35.776125 L83.8444444,35.776125 C84,36.24075 84,36.86025 84,37.47975 C84,39.493125 83.3777778,42.126 81.5111111,43.9845 C79.6444444,45.997875 77.4666667,46.927125 74.3555556,46.927125 C68.7555556,46.927125 63.9333333,42.280875 63.9333333,36.705375 C63.9333333,31.129875 68.7555556,26.483625 74.3555556,26.483625 C77.4666667,26.483625 79.6444444,27.722625 81.3555556,29.271375 L79.3333333,31.28475 C78.0888889,30.200625 76.3777778,29.271375 74.2,29.271375 C70.1555556,29.271375 66.8888889,32.52375 66.8888889,36.705375 C66.8888889,40.887 70,44.139375 74.2,44.139375 C76.8444444,44.139375 78.4,43.05525 79.3333333,42.126 C80.1111111,41.351625 80.7333333,40.112625 80.8888889,38.563875 L74.2,38.563875 L74.2,35.776125 Z M144.822222,37.944375 L145.133333,38.71875 L136.266667,42.43575 C137.044444,43.829625 137.977778,44.449125 139.533333,44.449125 C141.088889,44.449125 142.022222,43.67475 142.8,42.590625 L144.977778,44.139375 C144.355556,45.2235 142.488889,47.082 139.533333,47.082 C135.8,47.082 133,44.139375 133,40.422375 C133,36.395625 135.8,33.76275 139.222222,33.76275 C142.644444,33.76275 144.2,36.395625 144.822222,37.944375 Z M135.8,40.112625 L141.711111,37.634625 C141.4,36.86025 140.311111,36.24075 139.222222,36.24075 C137.822222,36.24075 135.8,37.634625 135.8,40.112625 Z M128.488889,46.4625 L128.488889,27.103125 L131.444444,27.103125 L131.444444,46.4625 L128.488889,46.4625 Z M123.822222,35.156625 L123.822222,34.0725 L126.622222,34.0725 L126.622222,45.843 C126.622222,50.644125 123.822222,52.6575 120.4,52.6575 C117.133333,52.6575 115.266667,50.48925 114.488889,48.785625 L116.977778,47.7015 C117.288889,48.785625 118.533333,50.024625 120.244444,50.024625 C122.422222,50.024625 123.822222,48.63075 123.822222,46.15275 L123.822222,45.2235 L123.666667,45.2235 C123.044444,45.997875 121.8,46.77225 120.244444,46.77225 C116.822222,46.77225 113.866667,43.9845 113.866667,40.2675 C113.866667,36.5505 116.977778,33.607875 120.244444,33.607875 C121.8,33.607875 123.044444,34.38225 123.822222,35.156625 Z M120.4,44.29425 C122.422222,44.29425 123.977778,42.590625 123.977778,40.2675 C123.977778,37.944375 122.422222,36.24075 120.4,36.24075 C118.377778,36.24075 116.666667,37.944375 116.666667,40.2675 C116.666667,42.590625 118.377778,44.29425 120.4,44.29425 Z M158.355556,27.103125 C161.622222,27.103125 164.733333,29.42625 164.733333,33.14325 C164.733333,36.86025 161.622222,39.183375 158.355556,39.183375 L154.311111,39.183375 L154.311111,46.4625 L151.355556,46.4625 L151.355556,27.103125 L158.355556,27.103125 Z M158.511111,36.395625 C160.533333,36.395625 161.777778,34.692 161.933333,32.988375 C161.933333,31.5945 160.688889,29.736 158.511111,29.736 L154.311111,29.736 L154.311111,36.395625 L158.511111,36.395625 Z M176.4,33.607875 C179.666667,33.607875 182.311111,35.62125 182.622222,39.0285 L182.622222,46.4625 L179.822222,46.4625 L179.822222,44.91375 L179.666667,44.91375 C178.888889,45.843 177.955556,46.77225 175.933333,46.77225 C173.444444,46.77225 171.111111,45.068625 171.111111,42.43575 C171.111111,39.648 173.911111,38.09925 176.711111,38.09925 C177.955556,38.09925 179.2,38.563875 179.666667,38.873625 L179.666667,38.71875 C179.511111,37.17 178.111111,36.24075 176.555556,36.24075 C175.466667,36.24075 174.533333,36.5505 173.911111,37.634625 L171.266667,36.5505 C172.044444,34.537125 174.222222,33.607875 176.4,33.607875 Z M176.088889,44.29425 C177.644444,44.29425 179.2,43.05525 179.511111,41.19675 C178.733333,40.887 178.111111,40.57725 176.866667,40.57725 C175.466667,40.57725 173.755556,41.041875 173.755556,42.590625 C173.755556,43.829625 175.155556,44.29425 176.088889,44.29425 Z M192.422222,34.0725 L195.533333,34.0725 L187.6,52.34775 L184.644444,52.34775 L187.6,45.843 L182.466667,34.0725 L185.577778,34.0725 L189,42.43575 L189.155556,42.43575 L192.422222,34.0725 Z M166.288889,46.4625 L166.288889,27.103125 L169.244444,27.103125 L169.244444,46.4625 L166.288889,46.4625 Z" id="Combined-Shape" fill="#FFFFFF" fill-rule="nonzero"></path>
                    <g id="Group" stroke-width="1" fill-rule="evenodd" transform="translate(15.555556, 10.841250)">
                        <path d="M0.622222222,0.774375 C0.155555556,1.239 0,2.013375 0,2.942625 L0,37.17 C0,38.09925 0.311111111,38.873625 0.777777778,39.33825 L0.933333333,39.493125 L20.2222222,20.288625 L20.2222222,19.978875 L0.622222222,0.774375 Z" id="Path" fill="url(#linearGradient-3)" fill-rule="nonzero"></path>
                        <path d="M26.4444444,26.793375 L20.0666667,20.4435 L20.0666667,19.978875 L26.4444444,13.629 L26.6,13.783875 L34.2222222,18.120375 C36.4,19.359375 36.4,21.37275 34.2222222,22.61175 L26.4444444,26.793375 L26.4444444,26.793375 Z" id="Path" fill="url(#linearGradient-4)" fill-rule="nonzero"></path>
                        <path d="M26.6,26.6385 L20.0666667,20.13375 L0.622222222,39.493125 C1.4,40.2675 2.48888889,40.2675 3.88888889,39.648 L26.6,26.6385" id="Path" fill="url(#linearGradient-5)" fill-rule="nonzero"></path>
                        <path d="M26.6,13.629 L3.88888889,0.774375 C2.48888889,5.55111512e-17 1.4,0.154875 0.622222222,0.92925 L20.0666667,20.13375 L26.6,13.629 L26.6,13.629 Z" id="Path" fill="url(#linearGradient-6)" fill-rule="nonzero"></path>
                        <path d="M26.4444444,26.483625 L3.88888889,39.183375 C2.64444444,39.95775 1.55555556,39.802875 0.777777778,39.183375 L0.622222222,39.33825 L0.777777778,39.493125 C1.55555556,40.112625 2.64444444,40.2675 3.88888889,39.493125 L26.4444444,26.483625 Z" id="Path" fill="#000000" fill-rule="nonzero" opacity="0.2"></path>
                        <path d="M0.622222222,39.183375 C0.155555556,38.71875 0,37.944375 0,37.015125 L0,37.17 C0,38.09925 0.311111111,38.873625 0.777777778,39.33825 L0.777777778,39.183375 L0.622222222,39.183375 Z M34.2222222,22.147125 L26.4444444,26.483625 L26.6,26.6385 L34.2222222,22.302 C35.3111111,21.6825 35.7777778,20.908125 35.7777778,20.13375 C35.7777778,20.908125 35.1555556,21.527625 34.2222222,22.147125 L34.2222222,22.147125 Z" id="Shape" fill="#000000" fill-rule="nonzero" opacity="0.12"></path>
                        <path d="M3.88888889,0.92925 L34.2222222,18.120375 C35.1555556,18.739875 35.7777778,19.359375 35.7777778,20.13375 C35.7777778,19.359375 35.3111111,18.585 34.2222222,17.9655 L3.88888889,0.774375 C1.71111111,-0.464625 0,0.464625 0,2.942625 L0,3.0975 C0,0.774375 1.71111111,-0.30975 3.88888889,0.92925 Z" id="Path" fill="#FFFFFF" fill-rule="nonzero" opacity="0.25"></path>
                    </g>
                </g>
            </g>
        </g>
    </g>
</svg>