<?xml version="1.0" encoding="UTF-8"?>
<svg width="50px" height="50px" viewBox="0 0 50 50" version="1.1" xmlns="http://www.w3.org/2000/svg" xmlns:xlink="http://www.w3.org/1999/xlink">
    <!-- Generator: Sketch 53.2 (72643) - https://sketchapp.com -->
    <title>linkedin</title>
    <desc>Created with Sketch.</desc>
    <g id="Home" stroke="none" stroke-width="1" fill="none" fill-rule="evenodd">
        <g id="Desktop-Copy-8" transform="translate(-522.000000, -2645.000000)" fill="#000000" fill-rule="nonzero">
            <path d="M547,2645 C560.806122,2645 572,2656.19388 572,2670 C572,2683.80612 560.806122,2695 547,2695 C533.193878,2695 522,2683.80612 522,2670 C522,2656.19388 533.193878,2645 547,2645 Z M540.882653,2680.36224 L540.882653,2664.07143 L535.821429,2664.07143 L535.821429,2680.36224 L540.882653,2680.36224 Z M538.316327,2662.07143 C540.015306,2662.07143 541.045918,2660.93878 541.045918,2659.53571 C541.015306,2658.10204 540.015306,2657.0051 538.382653,2657.0051 C536.75,2657.0051 535.683673,2658.10714 535.683673,2659.53571 C535.683673,2660.93878 536.719388,2662.07143 538.316327,2662.07143 Z M554.306122,2680.36224 L559.362245,2680.36224 L559.362245,2670.72959 C559.362245,2665.92857 556.867347,2663.69898 553.535714,2663.69898 C550.806122,2663.69898 549.173469,2665.27041 548.505102,2666.33163 L548.403061,2666.33163 L548.173469,2664.06633 L543.77551,2664.06633 C543.841837,2665.53061 543.908163,2667.22959 543.908163,2669.26531 L543.908163,2680.35714 L548.97449,2680.35714 L548.97449,2670.96429 C548.97449,2670.5 549.005102,2670.03061 549.142857,2669.69898 C549.510204,2668.76531 550.341837,2667.80102 551.739796,2667.80102 C553.571429,2667.80102 554.306122,2669.22959 554.306122,2671.33163 L554.306122,2680.36224 Z" id="linkedin"></path>
        </g>
    </g>
</svg>