<?xml version="1.0" encoding="UTF-8"?>
<svg width="75px" height="75px" viewBox="0 0 75 75" version="1.1" xmlns="http://www.w3.org/2000/svg" xmlns:xlink="http://www.w3.org/1999/xlink">
    <!-- Generator: Sketch 53.2 (72643) - https://sketchapp.com -->
    <title>logo</title>
    <desc>Created with Sketch.</desc>
    <g id="Home" stroke="none" stroke-width="1" fill="none" fill-rule="evenodd">
        <g id="Desktop-Copy-11" transform="translate(-122.000000, -60.000000)" fill="#000000">
            <g id="Group-Copy-3" transform="translate(122.000000, 60.000000)">
                <g id="logo" transform="translate(37.500000, 37.500000) scale(-1, 1) translate(-37.500000, -37.500000) translate(0.000000, 0.000000)">
                    <polygon id="Path" points="58.403296 59.4674556 58.403296 0 75 0 75 75 40.858209 75 40.858209 59.4674556"></polygon>
                    <path d="M40.0935139,0 L57.6492537,0 L57.6492537,15.5325444 L40.0935139,15.5325444 C27.1221495,15.5325444 16.6067809,25.3677093 16.6067809,37.5 C16.6067809,49.6322907 27.1221495,59.4674556 40.0935139,59.4674556 L40.0935139,75 C17.9504776,75 0,58.2106781 0,37.5 C0,16.7893219 17.9504776,0 40.0935139,0 Z" id="Path"></path>
                    <path d="M33.0223881,38.0597015 L48.6940299,38.0597015 C48.3326583,42.1390578 44.9624198,45.3358209 40.858209,45.3358209 C36.7539981,45.3358209 33.3837596,42.1390578 33.0223881,38.0597015 L33.0223881,38.0597015 Z" id="Path"></path>
                    <path d="M33.0223881,36.9402985 C33.3837596,32.8609422 36.7539981,29.6641791 40.858209,29.6641791 C44.9624198,29.6641791 48.3326583,32.8609422 48.6940299,36.9402985 L33.0223881,36.9402985 L33.0223881,36.9402985 Z" id="Path"></path>
                </g>
            </g>
        </g>
    </g>
</svg>