<?xml version="1.0" encoding="UTF-8"?>
<svg width="73px" height="72px" viewBox="0 0 73 72" version="1.1" xmlns="http://www.w3.org/2000/svg" xmlns:xlink="http://www.w3.org/1999/xlink">
    <!-- Generator: Sketch 53.2 (72643) - https://sketchapp.com -->
    <title>logo</title>
    <desc>Created with Sketch.</desc>
    <g id="Home" stroke="none" stroke-width="1" fill="none" fill-rule="evenodd">
        <g id="Desktop-Copy-8" transform="translate(-123.000000, -61.000000)" fill="#000000">
            <g id="Group-Copy-3" transform="translate(122.000000, 60.000000)">
                <g id="logo">
                    <polygon id="Path" points="57.7637131 57.8979323 57.7637131 1.10201042 73.8346984 1.10201042 73.8346984 72.732688 40.7743857 72.732688 40.7743857 57.8979323"></polygon>
                    <path d="M39.8061584,1.10201042 L56.7535369,1.10201042 L56.7535369,15.9367661 L39.8061584,15.9367661 C27.2842924,15.9367661 17.1333143,25.3300931 17.1333143,36.9173492 C17.1333143,48.5046053 27.2842924,57.8979323 39.8061584,57.8979323 L39.8061584,72.732688 C18.4304477,72.732688 1.10201042,56.6976146 1.10201042,36.9173492 C1.10201042,17.1370838 18.4304477,1.10201042 39.8061584,1.10201042 Z" id="Path"></path>
                    <path d="M34.7133284,37.4683544 L46.835443,37.4683544 C46.5559198,40.5575652 43.9490189,42.9784066 40.7743857,42.9784066 C37.5997525,42.9784066 34.9928516,40.5575652 34.7133284,37.4683544 L34.7133284,37.4683544 Z" id="Path"></path>
                    <path d="M34.7133284,36.366344 C34.9928516,33.2771333 37.5997525,30.8562919 40.7743857,30.8562919 C43.9490189,30.8562919 46.5559198,33.2771333 46.835443,36.366344 L34.7133284,36.366344 L34.7133284,36.366344 Z" id="Path"></path>
                </g>
            </g>
        </g>
    </g>
</svg>