<?xml version="1.0" encoding="UTF-8"?>
<svg width="184px" height="214px" viewBox="0 0 184 214" version="1.1" xmlns="http://www.w3.org/2000/svg" xmlns:xlink="http://www.w3.org/1999/xlink">
    <!-- Generator: Sketch 53.2 (72643) - https://sketchapp.com -->
    <title>phones</title>
    <desc>Created with Sketch.</desc>
    <defs>
        <path d="M100,14.7788199 L100,188.890905 C100,197.060387 93.3994334,203.669725 85.2407932,203.669725 L14.7592068,203.669725 C6.60056657,203.669725 0,197.060387 0,188.890905 L0,14.7788199 C0,6.60933787 6.60056657,2.01554378e-15 14.7592068,0 L85.2407932,0 C93.3994334,0 100,6.60933787 100,14.7788199 Z" id="path-1"></path>
        <path d="M1.14675322,87.1829158 L0.615384615,87.1829158 C0.275517077,87.1829158 4.16217693e-17,86.9073987 0,86.5675312 L0,62.2598389 C-4.16217693e-17,61.9199714 0.275517077,61.6444543 0.615384615,61.6444543 L1.14675324,61.6444543 L1.14675326,11.4367219 C1.14675326,5.39337964 5.99071091,0.465379628 12.0331593,0.361437467 C26.0407394,0.120479156 38.7401855,2.90366022e-15 50.1314977,0 C61.5228101,0 74.2222569,0.120479161 88.2298381,0.361437482 C94.2722863,0.465379918 99.1162439,5.39337985 99.1162439,11.436722 L99.1162439,33.9521466 L99.3846154,33.9521466 C99.7244829,33.9521466 100,34.2276637 100,34.5675312 L100,44.7213774 C100,45.0612449 99.7244829,45.336762 99.3846154,45.336762 L99.1162439,45.336762 L99.1162439,61.9521466 L99.3846154,61.9521466 C99.5545492,61.9521466 99.6923077,62.0899051 99.6923077,62.2598389 L99.6923077,77.6444543 C99.6923077,77.814388 99.5545492,77.9521466 99.3846154,77.9521466 L99.116244,77.9521466 L99.116244,191.935761 C99.116244,197.955875 94.3081283,202.873862 88.289551,203.009858 C76.3728151,203.279128 63.653464,203.413764 50.1314977,203.413764 C36.6095317,203.413764 23.8901812,203.279128 11.9734462,203.009858 C5.95486892,202.873862 1.14675317,197.955875 1.14675317,191.935762 L1.14675322,87.1829158 Z" id="path-3"></path>
    </defs>
    <g id="Home" stroke="none" stroke-width="1" fill="none" fill-rule="evenodd">
        <g id="Desktop-Copy-10" transform="translate(-440.000000, -394.000000)">
            <g id="phones" transform="translate(440.000000, 394.000000)">
                <g id="iphone">
                    <g id="XMLID_136_" stroke-width="1" fill-rule="evenodd">
                        <mask id="mask-2" fill="white">
                            <use xlink:href="#path-1"></use>
                        </mask>
                        <use id="Mask" fill="#000000" fill-rule="nonzero" xlink:href="#path-1"></use>
                        <path d="M86.0056657,5.38958882 L77.9320113,5.38958882 C76.203966,5.38958882 75.5807365,5.3328563 75.4674221,7.51705809 C75.3541076,9.78635864 73.796034,11.0628402 71.6997167,11.7152641 C70.9915014,11.9421942 70.1983003,11.9138279 69.4334278,11.9138279 L67.9036827,11.9138279 L33.6827195,11.9138279 L32.1529745,11.9138279 C31.388102,11.9138279 30.5949008,11.9705604 29.8866856,11.7436304 C27.7903683,11.0912065 26.203966,9.75799238 26.1189802,7.48869183 C26.0056657,5.30449005 25.3824363,5.38958882 23.6543909,5.38958882 L15.4957507,5.38958882 C10.5382436,5.38958882 6.23229462,9.36086479 6.23229462,14.2965935 L6.23229462,188.266847 C6.23229462,193.230942 10.5382436,197.145486 15.4674221,197.145486 L86.0056657,197.145486 C90.9631728,197.145486 94.6175637,193.230942 94.6175637,188.266847 L94.6175637,14.2965935 C94.6175637,9.36086479 90.9631728,5.38958882 86.0056657,5.38958882 Z" fill="#FFFFFF" fill-rule="nonzero" mask="url(#mask-2)"></path>
                    </g>
                    <path d="M60.4268437,108.667978 C60.0589793,109.522711 59.623548,110.309489 59.1190482,111.03284 C58.431367,112.018955 57.8683092,112.701533 57.4343794,113.080576 C56.7617131,113.702749 56.0409991,114.021386 55.2692346,114.039508 C54.7151858,114.039508 54.0470239,113.880944 53.2692534,113.559287 C52.4889305,113.239139 51.7718201,113.080576 51.1161206,113.080576 C50.4284393,113.080576 49.6909087,113.239139 48.9020273,113.559287 C48.1119446,113.880944 47.4754641,114.048568 46.9888321,114.06518 C46.2487489,114.096892 45.5110682,113.769194 44.7747388,113.080576 C44.3047733,112.66831 43.7169409,111.96157 43.0127434,110.960354 C42.2571949,109.891183 41.6360296,108.651367 41.1493975,107.237886 C40.6282313,105.711145 40.3669725,104.232729 40.3669725,102.801428 C40.3669725,101.161881 40.7192214,99.7477962 41.4247703,98.5627979 C41.9792696,97.6109635 42.7169504,96.8601272 43.6402149,96.3089301 C44.5634795,95.7577329 45.5610677,95.4768489 46.6353819,95.4588784 C47.2232142,95.4588784 47.9940779,95.641755 48.9520268,96.0011658 C49.9072731,96.3617846 50.5206307,96.5446613 50.789547,96.5446613 C50.9905962,96.5446613 51.6719712,96.330827 52.8270654,95.9045175 C53.9193975,95.5091657 54.8413107,95.3454677 55.5965589,95.4099502 C57.6430861,95.5760644 59.1806092,96.3874568 60.2031221,97.8492618 C58.372809,98.9646432 57.4674121,100.526872 57.48543,102.530964 C57.5019463,104.091985 58.0650041,105.390998 59.1716003,106.422416 C59.6730971,106.901127 60.2331519,107.271109 60.8562691,107.533871 C60.7211352,107.928015 60.5784939,108.305547 60.4268437,108.667978 Z M55.7331942,90.0918793 C55.7331942,91.3154011 55.2887539,92.4577987 54.4028764,93.5151911 C53.3338174,94.7722227 52.0407365,95.4985948 50.6384974,95.383976 C50.6206297,95.2371914 50.6102695,95.0827052 50.6102695,94.9203663 C50.6102695,93.7457879 51.1186731,92.4887563 52.0215174,91.4609624 C52.4722639,90.9405719 53.0455318,90.5078746 53.7407205,90.1627044 C54.4344076,89.8226837 55.0905576,89.6346424 55.7076689,89.6024465 C55.7256868,89.7660086 55.7331942,89.9295858 55.7331942,90.0918642 L55.7331942,90.0918793 Z" id="Combined-Shape" fill="#000000" fill-rule="nonzero"></path>
                    <path d="M60.9348442,8.08438323 C60.2464439,8.08438323 59.6883853,7.52558297 59.6883853,6.83626792 C59.6883853,6.14695287 60.2464439,5.58815262 60.9348442,5.58815262 C61.6232444,5.58815262 62.1813031,6.14695287 62.1813031,6.83626792 C62.1813031,7.52558297 61.6232444,8.08438323 60.9348442,8.08438323 Z M45.2974504,7.65888937 C44.8441926,7.65888937 44.4475921,7.3752268 44.4475921,6.94973295 C44.4475921,6.52423909 44.815864,6.24057653 45.2974504,6.24057653 L56.3456091,6.24057653 C56.8271955,6.24057653 57.1954674,6.52423909 57.1954674,6.94973295 C57.1954674,7.3752268 56.8271955,7.65888937 56.3456091,7.65888937 L45.2974504,7.65888937 Z" id="Combined-Shape" fill="#333333" fill-rule="nonzero"></path>
                    <rect id="Rectangle" fill="#FE7F67" fill-rule="evenodd" x="18.3486239" y="166.972477" width="64.2201835" height="18.0428135" rx="3.05810398"></rect>
                </g>
                <g id="oneplus" transform="translate(84.000000, 10.000000)">
                    <g id="screen" stroke-width="1" fill-rule="evenodd" transform="translate(0.000000, 0.201700)">
                        <mask id="mask-4" fill="white">
                            <use xlink:href="#path-3"></use>
                        </mask>
                        <use id="Mask" fill="#000000" xlink:href="#path-3"></use>
                        <path d="M13.920078,3.49060813 L36.9241396,3.49060813 C43.6581854,3.49060813 43.6581854,10.0308119 49.3846154,10.0308119 C55.1110454,10.0308119 55.1110454,3.49060813 61.8616004,3.49060813 L86.079922,3.49060813 C89.3716835,3.49060813 90.5653558,3.83334884 91.7687746,4.47694426 C92.9721934,5.12053968 93.9166435,6.0649898 94.5602389,7.2684086 C95.2038343,8.47182741 95.5465751,9.66549967 95.5465751,12.9572612 L95.5465751,186.023955 C95.5465751,189.315717 95.2038343,190.509389 94.5602389,191.712808 C93.9166435,192.916226 92.9721934,193.860677 91.7687746,194.504272 C90.5653558,195.147867 89.3716835,195.490608 86.079922,195.490608 L13.920078,195.490608 C10.6283165,195.490608 9.43464423,195.147867 8.23122542,194.504272 C7.02780662,193.860677 6.0833565,192.916226 5.43976108,191.712808 C4.79616566,190.509389 4.45342495,189.315717 4.45342495,186.023955 L4.45342495,12.9572612 C4.45342495,9.66549967 4.79616566,8.47182741 5.43976108,7.2684086 C6.0833565,6.0649898 7.02780662,5.12053968 8.23122542,4.47694426 C9.43464423,3.83334884 10.6283165,3.49060813 13.920078,3.49060813 Z" fill="#FFFFFF" mask="url(#mask-4)"></path>
                    </g>
                    <ellipse id="camera" fill="#323232" fill-rule="evenodd" cx="49.4328082" cy="6.66305937" rx="1.74050046" ry="1.73998245"></ellipse>
                    <rect id="Rectangle-Copy" fill="#FE7F67" fill-rule="evenodd" x="16.9230769" y="165.230769" width="66.1538462" height="18.1538462" rx="3.07692308"></rect>
                    <path d="M39.6467022,96.753233 C40.1363167,96.753233 40.5560765,96.9270176 40.9057184,97.2745869 C41.2553604,97.6221562 41.4301551,98.0391766 41.4301551,98.5260141 L41.4301551,106.000061 C41.4301551,106.499032 41.2579379,106.921543 40.9144503,107.269113 C40.5702789,107.616734 40.1475734,107.790519 39.6467022,107.790519 C39.1454628,107.790519 38.7201799,107.616682 38.3705905,107.269113 C38.0209485,106.921491 37.8461538,106.499032 37.8461538,106.000061 L37.8461538,98.5260141 C37.8461538,98.0392289 38.0210011,97.6221562 38.3705905,97.2745869 C38.7201799,96.9270176 39.1454628,96.753233 39.6467022,96.753233 Z M54.122522,90.0437755 C55.3693347,90.6819621 56.3660273,91.5707584 57.1119688,92.7120994 C57.8578051,93.8543294 58.2309599,95.102305 58.2309599,96.4580658 L42.0598999,96.4580658 C42.0598999,95.1019912 42.4330022,93.8540679 43.178891,92.7120994 C43.9247799,91.5707584 44.9272587,90.6819621 46.1859594,90.0437755 L44.9446172,87.7671601 C44.8628219,87.6164387 44.8918053,87.5012272 45.0318305,87.4195908 C45.1831123,87.3498259 45.2996246,87.3850222 45.3814198,87.5236106 L46.6401205,89.8184255 C47.7472236,89.3316403 48.918711,89.0877247 50.1542144,89.0877247 C51.3894547,89.0877247 52.5608369,89.331588 53.6683609,89.8184255 L54.9270089,87.5236106 C55.008436,87.3850222 55.1249482,87.3495121 55.2765983,87.4195908 C55.4163078,87.5008611 55.4452912,87.6164387 55.3638115,87.7671601 L54.122522,90.0437755 Z M46.9459454,93.3551496 C47.0795532,93.2220001 47.1467778,93.0629111 47.147146,92.8773072 C47.147146,92.6920171 47.0798688,92.5332419 46.9459454,92.3994648 C46.8117065,92.2663153 46.6513772,92.1997406 46.4650102,92.1997406 C46.2786431,92.1997406 46.1212069,92.2663153 45.9930698,92.3994648 C45.8649326,92.5329281 45.800864,92.6920171 45.800864,92.8773072 C45.800864,93.0632249 45.8649326,93.2220001 45.9930698,93.3551496 C46.1212069,93.4889266 46.2782749,93.5555014 46.4650102,93.5555014 C46.6513772,93.5555014 46.8117065,93.4889266 46.9459454,93.3551496 Z M54.3146752,93.3551496 C54.4428649,93.2220001 54.5068809,93.0629111 54.5068809,92.8773072 C54.5068809,92.6920171 54.4429175,92.5332419 54.3146752,92.3994648 C54.1862224,92.2663153 54.0291544,92.1997406 53.8427874,92.1997406 C53.6559995,92.1997406 53.4957228,92.2663153 53.3617469,92.3994648 C53.2275605,92.5329281 53.1605989,92.6920171 53.1605989,92.8773072 C53.1605989,93.0632249 53.2275605,93.2220001 53.3617469,93.3551496 C53.4957228,93.4889266 53.6559995,93.5555014 53.8427874,93.5555014 C54.0288388,93.5555014 54.186275,93.4889266 54.3146752,93.3551496 Z M42.1293339,108.659442 L42.1293339,97.083178 L58.1775168,97.083178 L58.1775168,108.659808 C58.1775168,109.193295 57.9910446,109.644937 57.6183106,110.015569 C57.2448401,110.386202 56.7964126,110.571544 56.2720285,110.571544 L54.960779,110.571544 L54.960779,114.517235 C54.960779,115.015578 54.7860369,115.438664 54.436395,115.786286 C54.086753,116.133908 53.6612071,116.307692 53.1602833,116.307692 C52.6589912,116.307692 52.2338135,116.133908 51.8841716,115.786286 C51.5345296,115.438664 51.3597875,115.015525 51.3597875,114.517235 L51.3597875,110.571544 L48.9472736,110.571544 L48.9472736,114.517235 C48.9472736,115.015578 48.7724789,115.438664 48.4228369,115.786286 C48.0731949,116.133908 47.647649,116.307692 47.1467252,116.307692 C46.6574263,116.307692 46.237614,116.133908 45.8880246,115.786286 C45.5384352,115.438664 45.3636405,115.015525 45.3636405,114.517235 L45.3459139,110.571178 L44.0521281,110.571178 C43.5158561,110.571178 43.0615897,110.385888 42.6884875,110.015255 C42.3157009,109.644623 42.1293339,109.192981 42.1293339,108.659442 Z M60.6610427,96.753233 C61.1619665,96.753233 61.5875124,96.924455 61.9371544,97.2659578 C62.2867964,97.6080881 62.4615385,98.0282987 62.4615385,98.5260141 L62.4615385,106.000061 C62.4615385,106.499032 62.2867964,106.921491 61.9371544,107.269113 C61.5875124,107.616734 61.1619665,107.790519 60.6610427,107.790519 C60.1716912,107.790519 59.7519315,107.616734 59.4022895,107.269113 C59.0526475,106.921491 58.8779054,106.499032 58.8779054,106.000061 L58.8779054,98.5260141 C58.8779054,98.028351 59.0527001,97.6080881 59.4022895,97.2659578 C59.7519315,96.924455 60.1713756,96.753233 60.6610427,96.753233 Z" id="Combined-Shape" fill="#000000" fill-rule="nonzero"></path>
                </g>
            </g>
        </g>
    </g>
</svg>