<?xml version="1.0" encoding="UTF-8"?>
<svg width="50px" height="50px" viewBox="0 0 50 50" version="1.1" xmlns="http://www.w3.org/2000/svg" xmlns:xlink="http://www.w3.org/1999/xlink">
    <!-- Generator: Sketch 53.2 (72643) - https://sketchapp.com -->
    <title>upwork</title>
    <desc>Created with Sketch.</desc>
    <g id="Home" stroke="none" stroke-width="1" fill="none" fill-rule="evenodd" opacity="0.900000036">
        <g id="Desktop-Copy-8" transform="translate(-382.000000, -2645.000000)" fill="#000000" fill-rule="nonzero">
            <path d="M407,2645 C420.810484,2645 432,2656.18952 432,2670 C432,2683.81048 420.810484,2695 407,2695 C393.189516,2695 382,2683.81048 382,2670 C382,2656.18952 393.189516,2645 407,2645 Z M416.979839,2677.66129 C421.112903,2677.66129 424.540323,2674.23387 424.741935,2669.89919 C424.741935,2665.76613 421.314516,2662.33871 417.181452,2662.33871 C413.653226,2662.33871 410.830645,2664.65726 409.822581,2668.4879 C408.108871,2665.76613 406.798387,2662.74194 405.991935,2660.22177 L402.16129,2660.22177 L402.16129,2670.30242 C402.16129,2672.31855 400.548387,2673.93145 398.532258,2673.93145 C396.516129,2673.93145 394.903226,2672.31855 394.903226,2670.30242 L394.903226,2660.22177 L391.072581,2660.22177 L391.072581,2670.30242 C391.072581,2674.43548 394.399194,2677.7621 398.431452,2677.7621 C402.46371,2677.7621 405.790323,2674.43548 405.790323,2670.30242 L405.790323,2668.58871 C406.495968,2670.10081 407.504032,2671.71371 408.512097,2673.125 L406.092742,2684.21371 L410.024194,2684.21371 L411.737903,2676.14919 C413.25,2677.05645 414.96371,2677.66129 416.979839,2677.66129 Z M416.979839,2666.06855 C419.096774,2666.06855 420.810484,2667.78226 420.810484,2669.79839 C420.709677,2672.01613 418.895161,2673.72984 416.879032,2673.72984 C415.366935,2673.72984 413.854839,2673.02419 412.645161,2672.01613 L413.048387,2670.50403 L413.048387,2670.40323 C413.25,2668.79032 414.157258,2666.06855 416.979839,2666.06855 Z" id="upwork"></path>
        </g>
    </g>
</svg>